<svg id="Filter_btn" data-name="Filter btn" xmlns="http://www.w3.org/2000/svg" width="27.429" height="24" viewBox="0 0 27.429 24">
  <path id="FontAwsome_sliders-h_" data-name="FontAwsome (sliders-h)" d="M26.571,50.857h-18V50a.86.86,0,0,0-.857-.857H6A.86.86,0,0,0,5.143,50v.857H.857A.86.86,0,0,0,0,51.714v1.714a.86.86,0,0,0,.857.857H5.143v.857A.86.86,0,0,0,6,56H7.714a.86.86,0,0,0,.857-.857v-.857h18a.86.86,0,0,0,.857-.857V51.714A.86.86,0,0,0,26.571,50.857Zm0-8.571H22.286v-.857a.86.86,0,0,0-.857-.857H19.714a.86.86,0,0,0-.857.857v.857h-18A.86.86,0,0,0,0,43.143v1.714a.86.86,0,0,0,.857.857h18v.857a.86.86,0,0,0,.857.857h1.714a.86.86,0,0,0,.857-.857v-.857h4.286a.86.86,0,0,0,.857-.857V43.143A.86.86,0,0,0,26.571,42.286Zm0-8.571H15.429v-.857A.86.86,0,0,0,14.571,32H12.857a.86.86,0,0,0-.857.857v.857H.857A.86.86,0,0,0,0,34.571v1.714a.86.86,0,0,0,.857.857H12V38a.86.86,0,0,0,.857.857h1.714A.86.86,0,0,0,15.429,38v-.857H26.571a.86.86,0,0,0,.857-.857V34.571A.86.86,0,0,0,26.571,33.714Z" transform="translate(0 -32)" fill="#43885d"/>
</svg>
